<svg xmlns="http://www.w3.org/2000/svg" width="20" height="20" viewBox="0 0 20 20">
  <g id="Layer_2" data-name="Layer 2" transform="translate(-0.206 -0.206)">
    <g id="edit" transform="translate(-0.155 -0.155)">
      <rect id="Rectangle_52" data-name="Rectangle 52" width="20" height="20" transform="translate(0.361 0.361)" fill="#58d241" opacity="0"/>
      <path id="Path_32" data-name="Path 32" d="M17.264,6.885,14.9,4.525a1.723,1.723,0,0,0-2.291-.06L4.861,12.217a1.723,1.723,0,0,0-.491,1.042L4,16.851a.859.859,0,0,0,.861.939h.078l3.592-.327a1.723,1.723,0,0,0,1.042-.491l7.752-7.752a1.654,1.654,0,0,0-.06-2.334ZM14.336,9.762,12.027,7.453l1.68-1.723,2.352,2.352Z" transform="translate(-0.529 -0.538)" fill="#58d241"/>
    </g>
  </g>
</svg>
